<svg width="153" height="32" viewBox="0 0 153 32" fill="none" xmlns="http://www.w3.org/2000/svg">
<path d="M24 4C25.4145 4 26.771 4.5619 27.7712 5.5621C28.7714 6.56229 29.3333 7.91885 29.3333 9.33333V20C29.3333 21.4145 28.7714 22.771 27.7712 23.7712C26.771 24.7714 25.4145 25.3333 24 25.3333H17.7013L11.352 29.1427C11.1608 29.2574 10.9438 29.3224 10.721 29.3316C10.4982 29.3408 10.2766 29.294 10.0766 29.1954C9.87656 29.0969 9.70443 28.9497 9.57598 28.7674C9.44753 28.5851 9.36685 28.3735 9.34132 28.152L9.33332 28V25.3333H7.99999C6.63167 25.3333 5.31569 24.8074 4.32424 23.8644C3.3328 22.9213 2.74174 21.6333 2.67332 20.2667L2.66666 20V9.33333C2.66666 7.91885 3.22856 6.56229 4.22875 5.5621C5.22895 4.5619 6.5855 4 7.99999 4H24ZM16 17.3333C15.6464 17.3333 15.3072 17.4738 15.0572 17.7239C14.8071 17.9739 14.6667 18.313 14.6667 18.6667V18.68C14.6667 19.0336 14.8071 19.3728 15.0572 19.6228C15.3072 19.8729 15.6464 20.0133 16 20.0133C16.3536 20.0133 16.6927 19.8729 16.9428 19.6228C17.1928 19.3728 17.3333 19.0336 17.3333 18.68V18.6667C17.3333 18.313 17.1928 17.9739 16.9428 17.7239C16.6927 17.4738 16.3536 17.3333 16 17.3333ZM16 9.33333C15.6464 9.33333 15.3072 9.47381 15.0572 9.72386C14.8071 9.97391 14.6667 10.313 14.6667 10.6667V14.6667C14.6667 15.0203 14.8071 15.3594 15.0572 15.6095C15.3072 15.8595 15.6464 16 16 16C16.3536 16 16.6927 15.8595 16.9428 15.6095C17.1928 15.3594 17.3333 15.0203 17.3333 14.6667V10.6667C17.3333 10.313 17.1928 9.97391 16.9428 9.72386C16.6927 9.47381 16.3536 9.33333 16 9.33333Z" fill="#F7CB15"/>
<rect x="32" y="4" width="121" height="23" rx="10" fill="#F7CB15"/>
<path d="M54.5427 15.58H52.7307V20.644H51.8907V10.612H52.7307V14.788H54.5427V15.58ZM45.2067 20.524H44.3667L46.3827 10.744H48.6147L50.6307 20.524H49.7907L47.8947 11.536H47.1027L45.2067 20.524ZM59.2874 11.536L61.2434 16.492H60.3434L58.3994 11.536H58.0874L56.1194 16.492H55.2194L57.1634 11.536H55.2674V10.744H61.1834V11.536H59.2874ZM56.0834 17.284H56.9234V20.116H64.3874V20.908H56.0834V17.284ZM64.1354 17.884H63.2954V10.612H64.1354V17.884ZM66.5401 12.28C66.5401 11.768 66.7121 11.38 67.0561 11.116C67.4081 10.844 67.9121 10.68 68.5681 10.624C68.8641 10.6 69.1841 10.584 69.5281 10.576C69.8801 10.56 70.2321 10.552 70.5841 10.552C70.9361 10.552 71.2841 10.56 71.6281 10.576C71.9801 10.584 72.3041 10.6 72.6001 10.624C73.2641 10.68 73.7681 10.844 74.1121 11.116C74.4641 11.38 74.6401 11.768 74.6401 12.28C74.6401 12.792 74.4641 13.184 74.1121 13.456C73.7681 13.728 73.2641 13.892 72.6001 13.948C72.3041 13.972 71.9801 13.992 71.6281 14.008C71.2841 14.016 70.9361 14.02 70.5841 14.02C70.2321 14.02 69.8801 14.016 69.5281 14.008C69.1841 13.992 68.8641 13.972 68.5681 13.948C67.9121 13.892 67.4081 13.728 67.0561 13.456C66.7121 13.184 66.5401 12.792 66.5401 12.28ZM74.5081 19.036H67.5601V20.104H74.6881V20.896H66.7201V18.244H73.6681V17.32H66.7201V16.528H74.5081V19.036ZM67.3801 12.28C67.3801 12.56 67.4761 12.768 67.6681 12.904C67.8681 13.04 68.1841 13.124 68.6161 13.156C68.8961 13.172 69.2081 13.188 69.5521 13.204C69.8961 13.212 70.2441 13.216 70.5961 13.216C70.9561 13.216 71.3041 13.212 71.6401 13.204C71.9841 13.196 72.2961 13.18 72.5761 13.156C73.0081 13.116 73.3201 13.028 73.5121 12.892C73.7041 12.756 73.8001 12.552 73.8001 12.28C73.8001 12.008 73.7041 11.808 73.5121 11.68C73.3201 11.544 73.0081 11.456 72.5761 11.416C72.2961 11.392 71.9841 11.376 71.6401 11.368C71.3041 11.352 70.9561 11.344 70.5961 11.344C70.2441 11.344 69.8961 11.352 69.5521 11.368C69.2081 11.376 68.8961 11.392 68.6161 11.416C68.1841 11.448 67.8681 11.532 67.6681 11.668C67.4761 11.796 67.3801 12 67.3801 12.28ZM75.4681 14.836V15.628H65.7721V14.836H75.4681ZM82.7287 12.736H80.0287V11.944H83.5927L84.2287 10.372H85.1647L84.5767 11.944H88.1167V12.736H85.4647L88.5247 16.3H87.4207L84.3007 12.736H83.8927L80.7727 16.3H79.6687L82.7287 12.736ZM88.9447 17.2V17.992H84.5047V20.86H83.6647V17.992H79.2607V17.2H88.9447ZM89.6948 10.744H95.1428L93.5108 20.524H92.6108L94.0988 11.536H89.6948V10.744ZM99.8708 15.58H98.1548V20.644H97.3148V10.612H98.1548V14.788H99.8708V15.58ZM105.144 15.88C105.144 16.04 105.132 16.26 105.108 16.54C105.084 16.82 105.052 17.116 105.012 17.428C104.972 17.74 104.924 18.044 104.868 18.34C104.82 18.636 104.768 18.884 104.712 19.084C104.608 19.42 104.488 19.688 104.352 19.888C104.216 20.088 104.056 20.24 103.872 20.344C103.696 20.456 103.496 20.532 103.272 20.572C103.056 20.612 102.816 20.632 102.552 20.632C102.04 20.632 101.636 20.56 101.34 20.416C101.044 20.28 100.82 20.092 100.668 19.852C100.524 19.612 100.436 19.332 100.404 19.012C100.38 18.7 100.388 18.372 100.428 18.028C100.452 17.828 100.476 17.608 100.5 17.368C100.524 17.128 100.548 16.896 100.572 16.672C100.604 16.44 100.632 16.224 100.656 16.024C100.688 15.816 100.72 15.644 100.752 15.508C100.832 15.124 100.944 14.812 101.088 14.572C101.24 14.332 101.416 14.144 101.616 14.008C101.816 13.872 102.04 13.78 102.288 13.732C102.536 13.684 102.804 13.66 103.092 13.66C103.516 13.66 103.864 13.716 104.136 13.828C104.408 13.94 104.62 14.096 104.772 14.296C104.932 14.496 105.036 14.732 105.084 15.004C105.14 15.276 105.16 15.568 105.144 15.88ZM109.812 20.644H108.972V15.964H107.256V20.644H106.416V10.612H107.256V15.172H108.972V10.612H109.812V20.644ZM104.004 18.436C104.076 18.068 104.136 17.672 104.184 17.248C104.232 16.824 104.264 16.424 104.28 16.048C104.296 15.712 104.28 15.44 104.232 15.232C104.192 15.024 104.12 14.864 104.016 14.752C103.912 14.632 103.78 14.552 103.62 14.512C103.46 14.472 103.268 14.452 103.044 14.452C102.884 14.452 102.732 14.464 102.588 14.488C102.452 14.512 102.324 14.564 102.204 14.644C102.084 14.724 101.976 14.848 101.88 15.016C101.784 15.176 101.7 15.392 101.628 15.664C101.588 15.824 101.548 16.02 101.508 16.252C101.476 16.476 101.444 16.712 101.412 16.96C101.388 17.2 101.364 17.436 101.34 17.668C101.316 17.9 101.3 18.096 101.292 18.256C101.268 18.568 101.276 18.824 101.316 19.024C101.364 19.232 101.44 19.396 101.544 19.516C101.656 19.636 101.796 19.72 101.964 19.768C102.132 19.816 102.324 19.84 102.54 19.84C102.716 19.84 102.88 19.824 103.032 19.792C103.184 19.76 103.32 19.692 103.44 19.588C103.568 19.492 103.68 19.352 103.776 19.168C103.872 18.984 103.948 18.74 104.004 18.436ZM100.356 13.132V12.34H102.648L103.008 10.372H103.92L103.56 12.34H105.732V13.132H100.356ZM114.676 11.416H111.88V10.624H119.968V11.416H117.208L120.376 15.82H119.296L116.104 11.416H115.78L112.6 15.82H111.52L114.676 11.416ZM120.796 17.02V17.812H116.356V20.86H115.516V17.812H111.112V17.02H120.796ZM122.266 20.524H121.426L123.022 10.744H124.894L126.49 20.524H125.65L124.174 11.536H123.742L122.266 20.524ZM125.95 14.68H127.738V10.612H128.578V20.644H127.738V15.472H125.95V14.68ZM130.762 20.644H129.922V10.612H130.762V20.644ZM134.583 19.852V16.576C134.031 16.384 133.591 16.048 133.263 15.568C132.935 15.088 132.771 14.464 132.771 13.696C132.771 13.216 132.839 12.792 132.975 12.424C133.119 12.056 133.311 11.744 133.551 11.488C133.799 11.232 134.091 11.036 134.427 10.9C134.763 10.756 135.127 10.676 135.519 10.66C135.863 10.644 136.159 10.632 136.407 10.624C136.663 10.616 136.899 10.612 137.115 10.612C137.339 10.612 137.555 10.616 137.763 10.624C137.971 10.632 138.203 10.644 138.459 10.66C138.843 10.684 139.203 10.768 139.539 10.912C139.875 11.048 140.167 11.244 140.415 11.5C140.663 11.756 140.859 12.068 141.003 12.436C141.147 12.796 141.219 13.216 141.219 13.696C141.219 14.456 141.047 15.076 140.703 15.556C140.367 16.036 139.935 16.372 139.407 16.564V19.852H141.831V20.644H132.147V19.852H134.583ZM133.611 13.696C133.611 14.336 133.775 14.86 134.103 15.268C134.439 15.676 134.899 15.908 135.483 15.964C135.715 15.988 135.959 16.004 136.215 16.012C136.479 16.02 136.743 16.024 137.007 16.024C137.271 16.024 137.531 16.02 137.787 16.012C138.043 15.996 138.287 15.98 138.519 15.964C138.775 15.94 139.015 15.868 139.239 15.748C139.463 15.628 139.659 15.472 139.827 15.28C139.995 15.08 140.127 14.848 140.223 14.584C140.319 14.312 140.367 14.016 140.367 13.696C140.367 13.376 140.319 13.084 140.223 12.82C140.135 12.548 140.011 12.312 139.851 12.112C139.691 11.912 139.495 11.756 139.263 11.644C139.031 11.524 138.779 11.456 138.507 11.44C138.291 11.432 138.055 11.424 137.799 11.416C137.551 11.4 137.291 11.392 137.019 11.392C136.755 11.392 136.491 11.396 136.227 11.404C135.963 11.412 135.715 11.424 135.483 11.44C135.219 11.464 134.971 11.536 134.739 11.656C134.515 11.768 134.319 11.924 134.151 12.124C133.983 12.324 133.851 12.556 133.755 12.82C133.659 13.084 133.611 13.376 133.611 13.696ZM135.423 16.744V19.852H138.567V16.744H138.471C138.151 16.76 137.879 16.776 137.655 16.792C137.439 16.8 137.227 16.804 137.019 16.804C136.819 16.804 136.603 16.8 136.371 16.792C136.147 16.776 135.863 16.76 135.519 16.744H135.423Z" fill="black"/>
</svg>
