<svg width="24" height="24" viewBox="0 0 24 24" fill="none" xmlns="http://www.w3.org/2000/svg">
<path d="M13 21.008C13.765 21.0081 14.5012 20.7159 15.0579 20.1911C15.6147 19.6664 15.9499 18.9488 15.995 18.185L16 18.008V14.008H18C18.7351 14.0082 19.4447 13.7384 19.994 13.2499C20.5434 12.7613 20.8942 12.0881 20.98 11.358L20.995 11.185L21 11.008L20.98 10.812L19.974 5.78004C19.593 4.15504 18.472 2.98404 17.164 3.00004L17 3.00804H9C8.75491 3.0081 8.51838 3.09816 8.33533 3.26113C8.15227 3.42409 8.03543 3.64861 8.007 3.89204L8 4.00804L8.001 13.544C8.001 13.7196 8.04721 13.892 8.13498 14.044C8.22275 14.196 8.34898 14.3223 8.501 14.41C8.92729 14.6562 9.2864 15.0036 9.54661 15.4215C9.80682 15.8393 9.96013 16.3149 9.993 16.806L10 17.008V18.008C10 18.8037 10.3161 19.5668 10.8787 20.1294C11.4413 20.692 12.2044 21.008 13 21.008Z" fill="#F55D3E"/>
<path d="M5 14.0081C5.24493 14.008 5.48134 13.9181 5.66437 13.7553C5.84741 13.5926 5.96434 13.3683 5.993 13.1251L6 13.0081V4.00806C5.99997 3.76312 5.91004 3.52672 5.74728 3.34368C5.58453 3.16065 5.36025 3.04371 5.117 3.01506L5 3.00806H4C3.4951 3.00793 3.00884 3.19878 2.63881 3.54229C2.26878 3.88579 2.04236 4.35654 2.005 4.86006L2 5.01006V12.0101C2.00009 12.5145 2.19077 13.0002 2.53384 13.37C2.8769 13.7397 3.34702 13.9662 3.85 14.0041L4 14.0091L5 14.0081Z" fill="#F55D3E"/>
</svg>
